<?xml version="1.0" standalone="no"?><!DOCTYPE svg PUBLIC "-//W3C//DTD SVG 1.1//EN" "http://www.w3.org/Graphics/SVG/1.1/DTD/svg11.dtd"><svg class="icon" width="16px" height="16.00px" viewBox="0 0 1024 1024" version="1.1" xmlns="http://www.w3.org/2000/svg"><path fill="#ffffff" d="M64 107v810h896V107H64z m846 760H114V157h146.9v56.9h50V157H487v56.9h50V157h176.1v56.9h50V157H910v710zM411.1 579.6c67.4-4.9 120.5-61.1 120.5-129.7 0-71.8-58.2-130-130-130s-130 58.2-130 130c0 68.6 53.1 124.8 120.5 129.7-97.4 4.7-178.4 81.4-202.9 184.5h51.7c23-78.3 86.4-134.7 160.7-134.7s137.7 56.4 160.7 134.7H614C589.6 661 508.5 584.3 411.1 579.6z m-89.5-129.7c0-44.1 35.9-80 80-80s80 35.9 80 80-35.9 80-80 80-80-35.9-80-80z m333.2-34.4h180v50h-180v-50z m60 171.5h120v50h-120v-50z"  /></svg>