<?xml version="1.0" standalone="no"?><!DOCTYPE svg PUBLIC "-//W3C//DTD SVG 1.1//EN" "http://www.w3.org/Graphics/SVG/1.1/DTD/svg11.dtd"><svg class="icon" width="16px" height="16.00px" viewBox="0 0 1024 1024" version="1.1" xmlns="http://www.w3.org/2000/svg"><path fill="#ffffff" d="M682.666667 682.666667h-64c-11.733333 0-21.333333 9.6-21.333334 21.333333s9.6 21.333333 21.333334 21.333333h64c11.733333 0 21.333333-9.6 21.333333-21.333333s-9.6-21.333333-21.333333-21.333333z"  /><path fill="#ffffff" d="M627.413333 511.146667c-2.133333-0.853333-4.266667-1.066667-6.4-1.28A191.381333 191.381333 0 0 0 704 352a192 192 0 0 0-384 0c0 65.28 32.64 123.093333 82.56 157.653333-2.133333 0-4.266667 0.426667-6.4 1.28C261.333333 559.573333 170.666667 688.64 170.666667 832c0 6.4 0.426667 12.8 0.853333 19.2l0.213333 3.626667c0.853333 11.306667 10.026667 19.84 21.333334 19.84h637.866666c11.306667 0 20.48-8.746667 21.333334-19.84l0.213333-3.626667c0.426667-6.4 0.853333-12.8 0.853333-19.2 0-143.36-90.666667-272.213333-225.92-320.853333zM362.666667 352c0-82.346667 66.986667-149.333333 149.333333-149.333333s149.333333 66.986667 149.333333 149.333333-66.986667 149.333333-149.333333 149.333333-149.333333-66.986667-149.333333-149.333333z m149.333333 192c30.506667 0 59.52-7.253333 85.12-20.053333L512 606.506667l-85.12-82.773334c25.6 13.013333 54.613333 20.266667 85.12 20.266667z m-113.493333 11.733333l92.16 89.6V832H213.333333c0-121.173333 73.813333-230.4 185.173334-276.266667zM533.333333 832v-186.666667l91.946667-89.386666C736.64 601.813333 810.666667 711.04 810.666667 832H533.333333z"  /></svg>