<?xml version="1.0" standalone="no"?><!DOCTYPE svg PUBLIC "-//W3C//DTD SVG 1.1//EN" "http://www.w3.org/Graphics/SVG/1.1/DTD/svg11.dtd"><svg class="icon" width="16px" height="16.00px" viewBox="0 0 1024 1024" version="1.1" xmlns="http://www.w3.org/2000/svg"><path fill="#ffffff" d="M511.914554 67.88511l0 0.002047c-0.028653 0-0.057305-0.002047-0.085958-0.002047-21.023826 0-38.066991 17.043165-38.066991 38.066991l0 0 0 71.631434c0 21.023826 17.043165 38.066991 38.066991 38.066991s38.066991-17.043165 38.066991-38.066991l0-31.625278c185.385221 19.008936 329.998853 175.636183 329.998853 366.041744 0 203.230658-164.750251 367.981932-367.980909 367.981932-203.230658 0-367.980909-164.751275-367.980909-367.981932 0-101.286848 40.930201-193.007829 107.145276-259.545244l-0.070608-0.070608c6.860245-6.884804 11.102872-16.380062 11.102872-26.867928 0-21.023826-17.043165-38.066991-38.066991-38.066991-11.613502 0-22.005176 5.206582-28.987195 13.406335C116.356566 280.984532 67.798641 390.81394 67.798641 512c0 245.277286 198.837604 444.11489 444.11489 444.11489 245.277286 0 444.11489-198.837604 444.11489-444.11489S757.19184 67.88511 511.914554 67.88511zM452.573027 506.133386c1.337461 1.6465 2.75781 3.175319 4.243651 4.593622-2.089591 7.228635-3.231601 14.860453-3.231601 22.762423 0 45.212738 36.651758 81.864496 81.864496 81.864496 45.211714 0 81.864496-36.651758 81.864496-81.864496s-36.652781-81.864496-81.864496-81.864496c-6.803963 0-13.409404 0.844228-19.730367 2.408863L368.37744 272.663006c-14.83487-18.260899-39.662325-22.664186-55.452963-9.836019l-6.354731 5.161556c-15.790638 12.828167-16.565281 38.031175-1.730411 56.292074L452.573027 506.133386z" /></svg>