<?xml version="1.0" standalone="no"?><!DOCTYPE svg PUBLIC "-//W3C//DTD SVG 1.1//EN" "http://www.w3.org/Graphics/SVG/1.1/DTD/svg11.dtd"><svg t="1562579288324" class="icon" viewBox="0 0 1024 1024" version="1.1" xmlns="http://www.w3.org/2000/svg" p-id="1988" xmlns:xlink="http://www.w3.org/1999/xlink" width="128" height="128"><defs><style type="text/css"></style></defs><path d="M876.2 256H640.6V86.2c0-11-9-20-20-20h-473c-11 0-20 9-20 20v853.3c0 11 9 20 20 20h492.5v0.1h236c11 0 20-9 20-20V276c0.1-11-8.9-20-19.9-20zM512.1 692.1c0 6.6-5.4 12-12 12H268c-6.6 0-12-5.4-12-12V587.9c0-6.6 5.4-12 12-12h232c6.6 0 12 5.4 12 12v104.2z m0-192.2c0 6.6-5.4 12-12 12H268c-6.6 0-12-5.4-12-12V395.7c0-6.6 5.4-12 12-12h232c6.6 0 12 5.4 12 12v104.2z m0-191.9c0 6.6-5.4 12-12 12H268c-6.6 0-12-5.4-12-12V203.8c0-6.6 5.4-12 12-12h232c6.6 0 12 5.4 12 12V308z m320 383.9c0 6.6-5.4 12-12 12H716.3c-6.6 0-12-5.4-12-12V588.1c0-6.6 5.4-12 12-12h103.8c6.6 0 12 5.4 12 12v103.8z m0-192.4c0 6.6-5.4 12-12 12H716.3c-6.6 0-12-5.4-12-12V395.7c0-6.6 5.4-12 12-12h103.8c6.6 0 12 5.4 12 12v103.8z" fill="" p-id="1989"></path></svg>