<?xml version="1.0" standalone="no"?><!DOCTYPE svg PUBLIC "-//W3C//DTD SVG 1.1//EN" "http://www.w3.org/Graphics/SVG/1.1/DTD/svg11.dtd"><svg class="icon" width="16px" height="16.00px" viewBox="0 0 1024 1024" version="1.1" xmlns="http://www.w3.org/2000/svg"><path fill="#ffffff" d="M776.4992 957.39904H612.67968c-38.48192 0-69.95968-31.488-69.95968-69.95968v-224.4608h-51.3024v224.4608c0 38.47168-31.47776 69.95968-69.95968 69.95968H256.4608c-38.48192 0-69.95968-31.488-69.95968-69.95968V569.11872h-66.4576c-28.5696 0-53.63712-16.90624-64.7168-43.14112-11.07968-26.23488-4.66944-55.97184 15.1552-76.38016l2.9184-2.9184 395.27424-342.2208c12.83072-12.24704 29.73696-18.65728 47.81056-18.65728 17.48992 0 34.39616 6.41024 47.81056 18.65728l397.60896 343.97184 0.58368 0.58368c19.82464 19.82464 26.23488 50.13504 15.1552 76.38016-11.07968 26.23488-36.1472 43.14112-64.7168 43.14112h-66.4576v318.32064c0 39.05536-31.488 70.54336-69.96992 70.54336zM490.82368 616.3456h51.3024a46.78656 46.78656 0 0 1 46.6432 46.6432v224.4608a23.38816 23.38816 0 0 0 23.31648 23.31648h163.82976a23.38816 23.38816 0 0 0 23.31648-23.31648V522.47552h113.68448c9.32864 0 18.0736-5.24288 21.57568-14.57152a23.48032 23.48032 0 0 0-5.24288-25.6512L532.224 138.8544a22.50752 22.50752 0 0 0-31.47776 0l-0.58368 0.58368-396.45184 342.80448c-6.41024 6.99392-8.16128 16.32256-4.6592 25.06752a23.47008 23.47008 0 0 0 21.57568 14.57152h113.1008v364.96384a23.38816 23.38816 0 0 0 23.31648 23.31648h164.4032a23.38816 23.38816 0 0 0 23.31648-23.31648v-224.4608c-0.58368-25.64096 20.40832-46.03904 46.05952-46.03904z m0 0" /></svg>