<?xml version="1.0" standalone="no"?><!DOCTYPE svg PUBLIC "-//W3C//DTD SVG 1.1//EN" "http://www.w3.org/Graphics/SVG/1.1/DTD/svg11.dtd"><svg class="icon" width="16px" height="16.00px" viewBox="0 0 1024 1024" version="1.1" xmlns="http://www.w3.org/2000/svg"><path fill="#ffffff" d="M793.6 230.4c12.8 12.8 12.8 32 0 44.8l-448 448c-6.4 6.4-12.8 6.4-25.6 6.4s-19.2 0-25.6-6.4c-12.8-12.8-12.8-32 0-44.8l448-448c12.8-6.4 38.4-6.4 51.2 0zM1024 480c0 262.4-217.6 480-480 480S64 742.4 64 480 281.6 0 544 0 1024 217.6 1024 480z m-64 0C960 249.6 774.4 64 544 64S128 249.6 128 480 313.6 896 544 896 960 710.4 960 480z"  /></svg>