<?xml version="1.0" standalone="no"?><!DOCTYPE svg PUBLIC "-//W3C//DTD SVG 1.1//EN" "http://www.w3.org/Graphics/SVG/1.1/DTD/svg11.dtd"><svg class="icon" width="16px" height="16.00px" viewBox="0 0 1024 1024" version="1.1" xmlns="http://www.w3.org/2000/svg"><path fill="#ffffff" d="M870.326857 877.385143 870.326857 877.385143C870.326857 877.385143 870.326857 877.385143 870.326857 877.385143 777.947429 967.972571 651.556571 1024 512 1024 229.229714 1024 0 794.733714 0 511.963429 0 229.193143 229.229714-0.036571 512-0.036571 794.770286-0.036571 1024 229.193143 1024 511.963429 1024 655.177143 965.083429 784.457143 870.326857 877.385143ZM512 950.857143C615.936 950.857143 711.314286 914.541714 786.505143 854.125714 746.459429 740.388571 639.451429 658.249143 512 658.249143 384.548571 658.249143 277.540571 740.388571 237.494857 854.125714 312.685714 914.541714 408.064 950.857143 512 950.857143ZM512 73.142857C269.641143 73.142857 73.142857 269.641143 73.142857 512 73.142857 621.531429 113.517714 721.408 179.858286 798.317714 237.714286 672.585143 364.507429 585.142857 512 585.142857 659.456 585.142857 786.285714 672.585143 844.141714 798.317714 910.482286 721.444571 950.857143 621.531429 950.857143 512 950.857143 269.641143 754.358857 73.142857 512 73.142857ZM512 548.571429C410.989714 548.571429 329.142857 466.688 329.142857 365.714286 329.142857 264.704 410.989714 182.857143 512 182.857143 612.973714 182.857143 694.857143 264.704 694.857143 365.714286 694.857143 466.688 612.973714 548.571429 512 548.571429ZM512 256C451.401143 256 402.285714 305.115429 402.285714 365.677714 402.285714 426.276571 451.401143 475.392 512 475.392 572.598857 475.392 621.714286 426.276571 621.714286 365.677714 621.714286 305.115429 572.598857 256 512 256Z" /></svg>