<?xml version="1.0" standalone="no"?><!DOCTYPE svg PUBLIC "-//W3C//DTD SVG 1.1//EN" "http://www.w3.org/Graphics/SVG/1.1/DTD/svg11.dtd"><svg class="icon" width="16px" height="16.00px" viewBox="0 0 1024 1024" version="1.1" xmlns="http://www.w3.org/2000/svg"><path fill="#ffffff" d="M470.565926 668.539259c-9.671111 0-18.868148-4.266667-25.125926-11.567407L344.557037 539.211852l32.426667-27.780741 93.487407 109.131852L645.688889 414.151111c7.585185-9.007407 21.048889-10.05037 30.056296-2.465185s10.05037 21.048889 2.465185 30.056296L495.407407 657.161481c-6.162963 7.205926-15.17037 11.377778-24.841481 11.377778 0.094815 0 0 0 0 0zM810.002963 895.81037h-597.333333c-23.514074 0-42.666667-19.721481-42.666667-43.994074v-633.362963c0-24.272593 19.152593-43.994074 42.666667-43.994074h142.696296c11.757037 0 21.333333 9.576296 21.333333 21.333334S367.122963 217.125926 355.365926 217.125926h-142.222222c-0.18963 0.18963-0.379259 0.663704-0.37926 1.327407v633.362963c0 0.663704 0.284444 1.042963 0.37926 1.327408h596.48c0.18963-0.18963 0.379259-0.663704 0.379259-1.327408v-633.362963c0-0.663704-0.284444-1.042963-0.379259-1.327407h-142.222223c-11.757037 0-21.333333-9.576296-21.333333-21.333333s9.576296-21.333333 21.333333-21.333334h142.696297c23.514074 0 42.666667 19.721481 42.666666 43.994074v633.362963c-0.094815 24.272593-19.247407 43.994074-42.761481 43.994074z m0-678.589629zM645.12 292.977778H377.647407c-24.272593 0-44.088889-19.816296-44.088888-44.088889v-76.98963c0-24.272593 19.816296-44.088889 44.088888-44.088889h267.472593c24.272593 0 44.088889 19.816296 44.088889 44.088889v76.98963c0 24.367407-19.816296 44.088889-44.088889 44.088889zM377.647407 170.477037c-0.758519 0-1.422222 0.663704-1.422222 1.422222v76.98963c0 0.758519 0.663704 1.422222 1.422222 1.422222h267.472593c0.758519 0 1.422222-0.663704 1.422222-1.422222v-76.98963c0-0.758519-0.663704-1.422222-1.422222-1.422222H377.647407z" /></svg>