<?xml version="1.0" standalone="no"?><!DOCTYPE svg PUBLIC "-//W3C//DTD SVG 1.1//EN" "http://www.w3.org/Graphics/SVG/1.1/DTD/svg11.dtd"><svg class="icon" width="16px" height="9.00px" viewBox="0 0 1821 1024" version="1.1" xmlns="http://www.w3.org/2000/svg"><path fill="#ffffff" d="M1234.309 183.324h-601.483c-25.967 0-47.729 21.761-47.729 47.729v697.617c0 25.969 21.762 47.729 47.729 47.729h601.483c26.669 0 48.43-21.761 48.43-47.729v-697.617c0-25.97-21.762-47.729-48.43-47.729zM1191.487 598.818c0 16.129-12.623 28.772-28.773 28.772h-47.729c-15.427 0-28.073-12.644-28.073-28.772v-315.152c0-15.424 12.646-28.772 28.073-28.772h47.729c16.152 0 28.773 13.347 28.773 28.772v315.152zM675.625 63.999h181.779v76.502h-181.779z" /></svg>